<svg width="60" height="60" viewBox="0 0 60 60" fill="none" xmlns="http://www.w3.org/2000/svg">
<path d="M22.7673 13.6201C24.2623 9.24506 30.3073 9.11256 32.0798 13.2226L32.2298 13.6226L34.2473 19.5226C34.7096 20.8756 35.4568 22.1138 36.4383 23.1536C37.4199 24.1934 38.613 25.0106 39.9373 25.5501L40.4798 25.7526L46.3798 27.7676C50.7548 29.2626 50.8873 35.3076 46.7798 37.0801L46.3798 37.2301L40.4798 39.2476C39.1262 39.7096 37.8875 40.4566 36.8473 41.4382C35.8071 42.4198 34.9895 43.6131 34.4498 44.9376L34.2473 45.4776L32.2323 51.3801C30.7373 55.7551 24.6923 55.8876 22.9223 51.7801L22.7673 51.3801L20.7523 45.4801C20.2902 44.1265 19.5432 42.8878 18.5616 41.8476C17.58 40.8074 16.3868 39.9898 15.0623 39.4501L14.5223 39.2476L8.62227 37.2326C4.24477 35.7376 4.11227 29.6926 8.22227 27.9226L8.62227 27.7676L14.5223 25.7526C15.8754 25.2902 17.1136 24.543 18.1533 23.5615C19.1931 22.5799 20.0103 21.3868 20.5498 20.0626L20.7523 19.5226L22.7673 13.6201Z" fill="url(#paint0_linear_117_3931)"/>
<g clip-path="url(#clip0_117_3931)">
<path d="M47.4485 1.42472C48.078 -0.417532 50.6235 -0.473326 51.3699 1.25733L51.433 1.42577L52.2826 3.91017C52.4773 4.47994 52.7919 5.00132 53.2052 5.43916C53.6185 5.87699 54.1209 6.2211 54.6786 6.44826L54.907 6.53353L57.3914 7.38202C59.2337 8.01154 59.2895 10.557 57.5598 11.3034L57.3914 11.3665L54.907 12.2161C54.337 12.4106 53.8154 12.7252 53.3774 13.1385C52.9394 13.5519 52.5951 14.0543 52.3678 14.6121L52.2826 14.8394L51.4341 17.3249C50.8045 19.1671 48.2591 19.2229 47.5137 17.4933L47.4485 17.3249L46.6 14.8405C46.4054 14.2705 46.0909 13.7489 45.6775 13.3109C45.2642 12.8729 44.7617 12.5286 44.204 12.3013L43.9766 12.2161L41.4922 11.3676C39.6489 10.7381 39.5931 8.19261 41.3238 7.44729L41.4922 7.38202L43.9766 6.53353C44.5464 6.33884 45.0678 6.02423 45.5056 5.6109C45.9434 5.19758 46.2875 4.69517 46.5147 4.13756L46.6 3.91017L47.4485 1.42472ZM49.4413 2.10477L48.5928 4.58917C48.2963 5.45798 47.8141 6.25173 47.1795 6.91514C46.545 7.57855 45.7735 8.09568 44.9188 8.43052L44.6556 8.52632L42.1712 9.37481L44.6556 10.2233C45.5244 10.5197 46.3182 11.002 46.9816 11.6365C47.645 12.271 48.1621 13.0425 48.497 13.8973L48.5928 14.1604L49.4413 16.6448L50.2898 14.1604C50.5862 13.2916 51.0685 12.4979 51.703 11.8345C52.3375 11.1711 53.109 10.6539 53.9638 10.3191L54.2269 10.2243L56.7114 9.37481L54.2269 8.52632C53.3581 8.22987 52.5644 7.74759 51.901 7.11309C51.2375 6.47858 50.7204 5.7071 50.3856 4.85235L50.2908 4.58917L49.4413 2.10477Z" fill="#525252"/>
</g>
<defs>
<linearGradient id="paint0_linear_117_3931" x1="7.92607" y1="-15.9185" x2="76.7716" y2="18.6284" gradientUnits="userSpaceOnUse">
<stop offset="0.184" stop-color="#29ABE2"/>
<stop offset="0.821" stop-color="#0171F9"/>
</linearGradient>
<clipPath id="clip0_117_3931">
<rect width="60" height="60" fill="white"/>
</clipPath>
</defs>
</svg>
