<svg width="80" height="70" viewBox="0 0 80 70" fill="none" xmlns="http://www.w3.org/2000/svg">
<path d="M66.7721 38.1178C66.6344 38.0374 66.4767 37.9967 66.3168 38.0002C66.157 38.0038 66.0013 38.0514 65.8674 38.1378C61.118 41.1943 53.7934 42.1224 53.483 42.1602L52.9084 42.2273C50.788 42.4713 48.7857 42.7016 46.8604 44.0978C45.5284 45.1396 44.3212 46.3286 43.2624 47.6418C42.6763 48.3156 42.1214 48.9526 41.5248 49.5519C41.0682 50.0545 40.4429 50.3765 39.7647 50.4582C39.0315 50.4064 38.3451 50.0827 37.8429 49.5519C37.2463 48.9526 36.692 48.3156 36.1053 47.6418C35.0467 46.3287 33.8397 45.1396 32.5079 44.0978C30.5826 42.7011 28.5798 42.4707 26.4593 42.2273L25.8836 42.1602C25.5737 42.1218 18.2457 41.192 13.5003 38.1378C13.3663 38.0516 13.2107 38.004 13.0509 38.0004C12.8911 37.9968 12.7334 38.0374 12.5956 38.1176C12.4578 38.1977 12.3454 38.3143 12.2709 38.4542C12.1964 38.5941 12.1628 38.7518 12.174 38.9096C12.2498 39.9838 14.1954 65.2129 28.5508 65.2129C29.3117 65.2107 30.0708 65.1421 30.8195 65.0078C30.8369 65.0044 36.0688 63.6999 39.4061 59.8115C39.6204 59.5382 39.771 59.5806 39.9871 59.8419C43.2995 63.6999 48.5314 65.0044 48.5488 65.0078C49.2977 65.1419 50.057 65.2106 50.8175 65.2129C65.1758 65.2129 67.1185 39.9838 67.1937 38.9096C67.2049 38.7518 67.1713 38.5942 67.0968 38.4543C67.0224 38.3144 66.9099 38.1979 66.7721 38.1178ZM20.4449 53.3955C20.4449 53.3955 28.0915 45.9242 34.7627 55.5067C34.7627 55.5067 25.8141 63.6277 20.4449 53.3955ZM44.6056 55.5067C51.2768 45.9242 58.9234 53.3955 58.9234 53.3955C53.5542 63.6277 44.6056 55.5067 44.6056 55.5067Z" fill="url(#paint0_linear_117_3878)"/>
<path d="M60.6588 18.0531C60.3514 13.6632 58.6533 10.1288 57.3187 7.97909C55.8768 5.6578 53.1814 4.62227 50.7564 5.46237C44.753 7.54176 34.2225 7.54296 28.2179 5.46237C25.7941 4.62346 23.0975 5.6578 21.6556 7.97909C19.5 11.4503 16.3838 18.5369 19.7395 27.0094L21.9559 26.1312C19.1329 19.0064 21.3363 13.0113 23.6802 9.23626C24.5441 7.84563 26.0492 7.23432 27.4386 7.71336C33.8555 9.93694 45.1176 9.93694 51.5369 7.71336C52.9192 7.23432 54.4302 7.84563 55.2941 9.23745C57.638 13.0113 59.8414 19.0064 57.0196 26.1312L59.236 27.0094C60.0677 24.9297 60.5531 22.7278 60.6731 20.4912C69.067 22.2703 72.8528 24.7882 72.8528 26.5709C72.8528 29.9313 60.1595 34.618 39.4871 34.618C18.8148 34.618 6.12154 29.9301 6.12154 26.5697C6.12154 25.1969 8.45713 23.0866 15.0123 21.2824L14.3807 18.985C7.41803 20.8999 3.73828 23.5239 3.73828 26.5697C3.73828 33.3453 22.1573 37 39.4871 37C56.817 37 75.236 33.3453 75.236 26.5697C75.236 21.8222 66.4907 19.2448 60.6588 18.0531Z" fill="#525252"/>
<path d="M39.4863 29.8491V32.2324C52.2689 32.2324 60.3923 30.4247 64.097 29.3463L63.4321 27.0583C59.8489 28.101 51.9734 29.8491 39.4863 29.8491Z" fill="#AFAFAF"/>
<path d="M67.5521 25.5116C66.9634 25.8178 66.2246 26.1301 65.3535 26.4411L66.1543 28.6849C67.1255 28.3393 67.9656 27.983 68.6496 27.6279L67.5533 25.5128L67.5521 25.5116Z" fill="#4D9BFB"/>
<defs>
<linearGradient id="paint0_linear_117_3878" x1="15.4957" y1="22.0156" x2="67.97" y2="75.2584" gradientUnits="userSpaceOnUse">
<stop offset="0.184" stop-color="#29ABE2"/>
<stop offset="0.821" stop-color="#0171F9"/>
</linearGradient>
</defs>
</svg>
