<svg width="80" height="70" viewBox="0 0 80 70" fill="none" xmlns="http://www.w3.org/2000/svg">
<g clip-path="url(#clip0_117_3905)">
<rect x="3.68555" y="3" width="70" height="25" rx="8" fill="url(#paint0_linear_117_3905)"/>
<line x1="33.6504" y1="47.3296" x2="59.5186" y2="27.2445" stroke="#AFAFAF" stroke-width="2"/>
<path d="M33.2767 51.5089C31.2961 51.2597 29.8842 49.4719 30.1294 47.5237C30.3745 45.5755 32.1853 44.1934 34.166 44.4426C36.1467 44.6919 37.5586 46.4796 37.3134 48.4278C37.0681 50.376 35.2573 51.7582 33.2767 51.5089ZM65.4985 31.802L57.7286 29.6043L57.5348 21.7184L67.504 14.1092L67.721 22.0245L75.4677 24.1927L65.4985 31.802Z" fill="url(#paint1_linear_117_3905)"/>
<path d="M34.2282 43.9466C36.475 44.2294 38.0895 46.2601 37.8091 48.4898C37.5283 50.7196 35.4608 52.2879 33.2141 52.0051C30.9673 51.7223 29.3527 49.6907 29.6333 47.4609C29.9141 45.2313 31.9815 43.664 34.2282 43.9466Z" fill="url(#paint2_linear_117_3905)" stroke="white"/>
<path d="M38.1338 35.8809C35.5755 35.0307 32.8065 35.0588 30.266 35.9609C27.7254 36.8629 25.5586 38.5872 24.1092 40.8604C22.6598 43.1335 22.0107 45.8255 22.2648 48.5094C22.5189 51.1934 23.6617 53.7157 25.512 55.6765C27.3622 57.6372 29.8141 58.9242 32.4788 59.3335C35.1435 59.7427 37.8686 59.2506 40.2219 57.9354C42.5752 56.6201 44.4222 54.5569 45.4699 52.0729C46.5176 49.5889 46.7062 46.8262 46.0056 44.2229L43.9486 44.7764C44.5259 46.9216 44.3705 49.1981 43.5072 51.2451C42.6438 53.292 41.1219 54.9921 39.1827 56.0759C37.2435 57.1597 34.9979 57.5652 32.8021 57.228C30.6063 56.8908 28.5859 55.8302 27.0613 54.2145C25.5366 52.5988 24.5949 50.5203 24.3855 48.3087C24.1761 46.097 24.711 43.8788 25.9054 42.0056C27.0997 40.1324 28.8852 38.7116 30.9787 37.9683C33.0722 37.225 35.3539 37.2018 37.4621 37.9024L38.1338 35.8809Z" fill="#525252"/>
<mask id="path-6-outside-1_117_3905" maskUnits="userSpaceOnUse" x="10.6855" y="23.7368" width="48" height="48" fill="black">
<rect fill="white" x="10.6855" y="23.7368" width="48" height="48"/>
<path d="M45.168 27.5077C40.3995 24.9025 34.8529 24.0998 29.5415 25.2464C24.2301 26.393 19.5086 29.4123 16.2395 33.7527C12.9704 38.0931 11.3721 43.4647 11.7365 48.8862C12.1009 54.3077 14.4038 59.4171 18.2243 63.2809C22.0448 67.1448 27.128 69.505 32.545 69.9305C37.9621 70.356 43.3514 68.8182 47.7283 65.5983C52.1052 62.3783 55.1775 57.691 56.3839 52.3929C57.5903 47.0948 56.8502 41.5395 54.2988 36.742L52.0723 37.926C54.3394 42.189 54.997 47.1253 53.9251 51.8331C52.8532 56.5408 50.1232 60.7058 46.234 63.567C42.3448 66.4282 37.556 67.7946 32.7425 67.4165C27.929 67.0384 23.4123 64.9412 20.0174 61.5079C16.6226 58.0746 14.5764 53.5345 14.2526 48.7171C13.9287 43.8997 15.349 39.1266 18.2538 35.2698C21.1586 31.4131 25.3541 28.7302 30.0736 27.7114C34.7932 26.6925 39.7218 27.4057 43.9589 29.7207L45.168 27.5077Z"/>
</mask>
<path d="M45.168 27.5077C40.3995 24.9025 34.8529 24.0998 29.5415 25.2464C24.2301 26.393 19.5086 29.4123 16.2395 33.7527C12.9704 38.0931 11.3721 43.4647 11.7365 48.8862C12.1009 54.3077 14.4038 59.4171 18.2243 63.2809C22.0448 67.1448 27.128 69.505 32.545 69.9305C37.9621 70.356 43.3514 68.8182 47.7283 65.5983C52.1052 62.3783 55.1775 57.691 56.3839 52.3929C57.5903 47.0948 56.8502 41.5395 54.2988 36.742L52.0723 37.926C54.3394 42.189 54.997 47.1253 53.9251 51.8331C52.8532 56.5408 50.1232 60.7058 46.234 63.567C42.3448 66.4282 37.556 67.7946 32.7425 67.4165C27.929 67.0384 23.4123 64.9412 20.0174 61.5079C16.6226 58.0746 14.5764 53.5345 14.2526 48.7171C13.9287 43.8997 15.349 39.1266 18.2538 35.2698C21.1586 31.4131 25.3541 28.7302 30.0736 27.7114C34.7932 26.6925 39.7218 27.4057 43.9589 29.7207L45.168 27.5077Z" fill="#525252"/>
<path d="M45.168 27.5077C40.3995 24.9025 34.8529 24.0998 29.5415 25.2464C24.2301 26.393 19.5086 29.4123 16.2395 33.7527C12.9704 38.0931 11.3721 43.4647 11.7365 48.8862C12.1009 54.3077 14.4038 59.4171 18.2243 63.2809C22.0448 67.1448 27.128 69.505 32.545 69.9305C37.9621 70.356 43.3514 68.8182 47.7283 65.5983C52.1052 62.3783 55.1775 57.691 56.3839 52.3929C57.5903 47.0948 56.8502 41.5395 54.2988 36.742L52.0723 37.926C54.3394 42.189 54.997 47.1253 53.9251 51.8331C52.8532 56.5408 50.1232 60.7058 46.234 63.567C42.3448 66.4282 37.556 67.7946 32.7425 67.4165C27.929 67.0384 23.4123 64.9412 20.0174 61.5079C16.6226 58.0746 14.5764 53.5345 14.2526 48.7171C13.9287 43.8997 15.349 39.1266 18.2538 35.2698C21.1586 31.4131 25.3541 28.7302 30.0736 27.7114C34.7932 26.6925 39.7218 27.4057 43.9589 29.7207L45.168 27.5077Z" stroke="white" stroke-width="2" mask="url(#path-6-outside-1_117_3905)"/>
<line x1="17.0998" y1="14" x2="22.6855" y2="19.5858" stroke="#8BE2E8" stroke-width="2" stroke-linecap="round"/>
<line x1="1" y1="-1" x2="8.8995" y2="-1" transform="matrix(-0.707107 0.707107 0.707107 0.707107 56.6855 14)" stroke="#8BE2E8" stroke-width="2" stroke-linecap="round"/>
<line x1="1" y1="-1" x2="8.8995" y2="-1" transform="matrix(-0.974497 -0.2244 -0.2244 0.974497 68.793 44.585)" stroke="#AFAFAF" stroke-width="2" stroke-linecap="round"/>
</g>
<defs>
<linearGradient id="paint0_linear_117_3905" x1="7.91398" y1="-11.6845" x2="53.4666" y2="52.3196" gradientUnits="userSpaceOnUse">
<stop offset="0.184" stop-color="#29ABE2"/>
<stop offset="0.821" stop-color="#0171F9"/>
</linearGradient>
<linearGradient id="paint1_linear_117_3905" x1="40.4079" y1="-13.7987" x2="100.396" y2="26.9723" gradientUnits="userSpaceOnUse">
<stop offset="0.184" stop-color="#29ABE2"/>
<stop offset="0.821" stop-color="#0171F9"/>
</linearGradient>
<linearGradient id="paint2_linear_117_3905" x1="40.4079" y1="-13.7987" x2="100.396" y2="26.9723" gradientUnits="userSpaceOnUse">
<stop offset="0.184" stop-color="#29ABE2"/>
<stop offset="0.821" stop-color="#0171F9"/>
</linearGradient>
<clipPath id="clip0_117_3905">
<rect width="79.3701" height="70" fill="white"/>
</clipPath>
</defs>
</svg>
