<svg width="80" height="70" viewBox="0 0 80 70" fill="none" xmlns="http://www.w3.org/2000/svg">
<path d="M41.4675 15.0772C41.6008 15.2059 41.7071 15.3599 41.7802 15.5301C41.8534 15.7004 41.8919 15.8835 41.8935 16.0687C41.8951 16.254 41.8598 16.4378 41.7896 16.6092C41.7195 16.7807 41.6159 16.9365 41.4848 17.0675C41.3538 17.1985 41.198 17.3021 41.0265 17.3723C40.8551 17.4425 40.6713 17.4778 40.4861 17.4762C40.3008 17.4746 40.1177 17.4361 39.9474 17.3629C39.7772 17.2898 39.6232 17.1835 39.4945 17.0502C34.5968 12.1533 26.6308 12.1533 21.7338 17.0502C21.6051 17.1835 21.4511 17.2898 21.2809 17.3629C21.1107 17.4361 20.9276 17.4746 20.7423 17.4762C20.557 17.4778 20.3733 17.4425 20.2018 17.3723C20.0303 17.3021 19.8745 17.1985 19.7435 17.0675C19.6125 16.9365 19.5089 16.7807 19.4387 16.6092C19.3686 16.4378 19.3333 16.254 19.3349 16.0687C19.3365 15.8835 19.375 15.7004 19.4481 15.5301C19.5212 15.3599 19.6275 15.2059 19.7608 15.0772C25.7448 9.09256 35.4829 9.09256 41.4675 15.0772ZM69.6836 59.4186C69.6857 60.1518 69.5423 60.8782 69.2616 61.5556C68.9808 62.233 68.5684 62.8479 68.0482 63.3646C66.9947 64.4195 65.5931 65 64.1022 65C62.6113 65 61.2096 64.4195 60.1561 63.3646L45.505 48.7135C45.2434 48.4518 45.0964 48.097 45.0964 47.727C45.0964 47.357 45.2434 47.0021 45.505 46.7405L47.478 44.7674L44.3838 41.6733C40.7001 44.8986 35.8834 46.8605 30.6138 46.8605C19.0729 46.8605 9.68359 37.4712 9.68359 25.9302C9.68359 14.3893 19.0729 5 30.6138 5C42.1548 5 51.5441 14.3893 51.5441 25.9302C51.5441 31.1998 49.5822 36.0165 46.3568 39.7002L49.451 42.7944L51.4241 40.8214C51.6857 40.5598 52.0406 40.4129 52.4106 40.4129C52.7806 40.4129 53.1354 40.5598 53.3971 40.8214L68.0482 55.4726C68.5684 55.9893 68.9808 56.6042 69.2616 57.2816C69.5423 57.959 69.6857 58.6854 69.6836 59.4186ZM48.7534 25.9302C48.7534 15.9284 40.6164 7.7907 30.6138 7.7907C20.6113 7.7907 12.4743 15.9284 12.4743 25.9302C12.4743 35.9321 20.6113 44.0698 30.6138 44.0698C40.6164 44.0698 48.7534 35.9321 48.7534 25.9302ZM66.8929 59.4186C66.8938 59.052 66.8221 58.6889 66.6817 58.3502C66.5414 58.0115 66.3352 57.704 66.0752 57.4456L52.4106 43.7809L48.4645 47.727L62.1292 61.3916C63.1841 62.4465 65.021 62.4465 66.0752 61.3916C66.3352 61.1332 66.5414 60.8257 66.6817 60.487C66.8221 60.1484 66.8938 59.7852 66.8929 59.4186Z" fill="#525252"/>
<path d="M69.2603 61.5556C69.541 60.8782 69.6845 60.1518 69.6824 59.4186C69.6845 58.6854 69.541 57.959 69.2603 57.2816C68.9796 56.6042 68.5672 55.9893 68.047 55.4725L53.3958 40.8214C53.1342 40.5598 52.7793 40.4128 52.4093 40.4128C52.0393 40.4128 51.6845 40.5598 51.4228 40.8214L49.4498 42.7944L47.4768 44.7674L45.5038 46.7405C45.2422 47.0021 45.0952 47.357 45.0952 47.727C45.0952 48.097 45.2422 48.4518 45.5038 48.7135L60.1549 63.3646C61.2084 64.4195 62.61 65 64.101 65C65.5919 65 66.9935 64.4195 68.047 63.3646C68.5672 62.8479 68.9796 62.233 69.2603 61.5556Z" fill="url(#paint0_linear_117_3921)"/>
<path d="M41.7814 15.5302C41.7082 15.3599 41.6019 15.2059 41.4687 15.0772C35.484 9.09258 25.7459 9.09258 19.7619 15.0772C19.6287 15.2059 19.5224 15.3599 19.4492 15.5302C19.3761 15.7004 19.3376 15.8835 19.336 16.0688C19.3344 16.254 19.3697 16.4378 19.4398 16.6093C19.51 16.7807 19.6136 16.9365 19.7446 17.0676C19.8756 17.1986 20.0314 17.3022 20.2029 17.3723C20.3744 17.4425 20.5581 17.4778 20.7434 17.4762C20.9287 17.4746 21.1118 17.4361 21.282 17.363C21.4523 17.2898 21.6062 17.1835 21.7349 17.0503C26.6319 12.1533 34.598 12.1533 39.4956 17.0503C39.6244 17.1835 39.7783 17.2898 39.9486 17.363C40.1188 17.4361 40.3019 17.4746 40.4872 17.4762C40.6724 17.4778 40.8562 17.4425 41.0277 17.3723C41.1992 17.3022 41.3549 17.1986 41.486 17.0676C41.617 16.9365 41.7206 16.7807 41.7907 16.6093C41.8609 16.4378 41.8962 16.254 41.8946 16.0688C41.893 15.8835 41.8545 15.7004 41.7814 15.5302Z" fill="#2A95DD"/>
<defs>
<linearGradient id="paint0_linear_117_3921" x1="46.5804" y1="25.9708" x2="84.5954" y2="45.047" gradientUnits="userSpaceOnUse">
<stop offset="0.184" stop-color="#29ABE2"/>
<stop offset="0.821" stop-color="#0171F9"/>
</linearGradient>
</defs>
</svg>
