<svg width="154" height="43" viewBox="0 0 154 43" fill="none" xmlns="http://www.w3.org/2000/svg">
<g clip-path="url(#clip0_820_403)">
<path d="M116.923 8.84582C117.853 7.63126 118.743 7.10214 120.296 6.96218C122.33 6.64456 124.28 7.86257 124.516 10.0248C124.822 12.8256 124.545 15.9745 124.718 18.8405C123.331 18.9075 122.316 18.9315 120.934 18.8277L120.945 18.4809C120.996 16.7222 121.144 13.1774 120.885 11.5639C120.811 11.1017 120.667 10.5328 120.334 10.188C120.024 9.86787 119.533 9.86434 119.118 9.85889C118.677 9.85309 118.31 9.92899 117.985 10.2509C116.876 11.352 117.245 15.9991 117.253 17.668L117.266 18.8536C116.014 18.9007 114.754 18.8735 113.501 18.8577C113.389 16.5907 113.569 14.1178 113.47 11.837C113.433 10.978 113.25 10.4579 112.613 9.90061C112.031 9.86325 111.595 9.87954 111.01 9.90414C110.253 10.4279 109.955 11.1359 109.923 12.0333C109.842 14.2888 109.97 16.5879 109.916 18.8423C108.598 18.9098 107.373 18.8826 106.057 18.8587C105.965 18.0136 105.989 15.3271 106.008 14.3592C106.052 12.1922 105.902 9.29148 106.106 7.19911C107.355 7.18568 108.606 7.19088 109.855 7.21456C109.909 7.86424 109.916 8.14106 109.862 8.7889C110.761 7.57257 111.424 7.27871 112.856 6.96394C114.12 6.9495 114.356 6.96117 115.56 7.32321C116.096 7.84854 116.497 8.21688 116.923 8.84582Z" fill="#0171F9"/>
<path d="M39.5626 2.49841C40.8874 2.56835 42.4654 2.48767 43.7559 2.59715C44.151 2.63065 45.5059 6.81052 45.7156 7.4079C46.5358 9.77314 47.3721 12.1328 48.2243 14.4867C48.7419 15.9551 49.188 17.4064 49.7909 18.8402C48.8646 18.8618 46.3917 19.0285 45.6623 18.7458C45.2054 18.3088 44.868 16.2036 44.544 15.3559C44.3884 15.2097 44.004 15.2185 43.7729 15.2028C42.2181 15.1638 40.2339 15.1415 38.6975 15.2513C38.4115 16.6624 38.1212 17.4776 37.6653 18.85C36.2718 18.8821 34.8778 18.8804 33.4844 18.8448C34.5063 16.095 35.5137 13.3399 36.5066 10.5796C36.9089 9.44217 39.0899 3.13105 39.5626 2.49841ZM39.6966 12.3132C40.3837 12.3254 41.1198 12.3526 41.8025 12.3483C42.3395 12.3364 42.9694 12.3387 43.4978 12.3068C43.0701 10.3224 42.1021 8.36446 41.7636 6.35714C41.7307 6.16185 41.7605 5.97218 41.6022 5.82542C41.1894 8.24095 40.1139 10.2647 39.6966 12.3132Z" fill="#0171F9"/>
<path d="M34.3065 20.0857C37.0131 19.9663 40.2042 20.1205 42.9676 20.1002L67.6724 20.0744C73.3635 20.0465 79.0543 20.053 84.7459 20.0941C86.5315 20.1189 88.5429 19.9796 90.299 20.1186C90.2914 20.6836 90.4426 21.9242 90.1907 22.3969C90.1377 22.4975 89.827 22.4852 89.6725 22.4967C87.9987 22.397 85.4338 22.4788 83.6634 22.4791L71.9849 22.4794L33.5244 22.4718C33.5075 21.6938 33.5203 20.8759 33.5201 20.0945L34.3065 20.0857Z" fill="#0171F9"/>
<path d="M69.8351 6.9537C71.5936 6.88485 73.2236 6.88107 74.8045 7.84099C77.6688 9.58014 78.0157 13.873 76.399 16.5663C75.4535 18.1416 73.9724 18.6985 72.2372 19.1016C70.4588 19.119 69.0979 19.2249 67.4635 18.3687C63.3615 16.2197 63.6824 9.07596 68.0752 7.42539C68.6475 7.21037 69.2423 7.12926 69.8351 6.9537ZM71.3261 16.2514C73.983 16.1431 74.0478 11.6822 72.5858 10.1803C72.2683 9.85402 71.1421 9.7976 70.6869 9.81388C70.0327 9.88231 69.6097 9.99893 69.1744 10.5593C68.1917 11.8246 68.1213 14.7271 69.4178 15.8139C70.0056 16.3067 70.6161 16.267 71.3261 16.2514Z" fill="#0171F9"/>
<path d="M92.127 7.20465C93.4287 7.19726 94.8119 7.16729 96.107 7.20835C96.8402 9.35185 97.5095 11.5635 98.0991 13.7504C98.2646 14.3644 98.472 14.7575 98.6349 15.4739C98.7449 15.3626 98.7886 14.9344 98.8197 14.7631C99.1716 12.8379 99.8645 10.9575 100.463 9.09846C100.668 8.46347 100.817 7.84846 101.055 7.22405C102.118 7.15293 103.602 7.19642 104.695 7.19743C104.465 8.08657 104.238 8.94212 103.894 9.7965C102.932 12.1941 102.096 14.6271 101.167 17.0388C100.048 20.3793 98.5686 25.0986 94.1376 24.5956C93.3573 24.507 93.2969 24.511 92.578 24.1658C92.5561 23.6115 92.4545 22.1917 92.6418 21.751C92.9483 21.0278 93.9125 22.1282 94.9152 21.6447C95.9441 21.1483 96.2876 19.927 96.6966 18.9103C95.9012 17.1695 95.0681 14.9437 94.3618 13.1572C93.6639 11.3927 92.5494 8.98914 92.127 7.20465Z" fill="#0171F9"/>
<path d="M147.842 15.6092C148.121 14.9644 148.394 13.9118 148.601 13.2144L149.788 9.2826C149.935 8.79857 150.226 7.70574 150.469 7.33489C151.056 7.08788 153.244 7.16638 153.916 7.24724L154.001 7.39114C153.976 8.16249 153.36 9.34809 153.124 10.1236C152.432 12.4039 151.279 14.7013 150.659 16.9861C149.154 20.07 148.551 24.8308 143.873 24.5821C143.035 24.5376 142.919 24.6756 142.109 24.2346C142.109 23.7881 142.007 21.8887 142.154 21.651C142.257 21.591 144.063 21.6721 144.45 21.6477C145.393 21.001 145.606 20.0729 146.028 19.01C145.811 18.1757 145.188 16.7474 144.841 15.8902L142.644 10.461C142.331 9.67923 141.617 7.97971 141.566 7.19972C142.335 7.21265 144.835 7.08763 145.394 7.27511C145.953 7.80801 147.792 14.6094 147.842 15.6092Z" fill="#0171F9"/>
<path d="M7.51944 4.01117C12.0164 4.04327 16.5206 4.02149 21.0178 4.00841C22.0184 4.0055 22.2478 4.05479 22.9551 4.77911C23.147 5.44718 23.2311 5.97436 23.2221 6.67207C23.1831 10.1749 23.245 13.6763 23.1977 17.1773C23.1705 19.1938 21.364 19.1304 19.8113 19.091C17.412 19.03 14.824 19.2333 12.4513 18.9974C12.1554 18.0007 11.8735 17.5586 11.1566 16.837L12.618 16.8097L13.8517 16.7223C13.9489 16.0263 13.9021 15.1909 13.8803 14.4777C14.9752 14.4077 17.8178 14.6427 18.6283 14.424C18.6408 15.1777 18.6174 15.9929 18.6104 16.7514L20.8532 16.7371C20.7777 13.3713 20.8287 9.70362 20.8439 6.31944C16.61 6.31457 12.3234 6.28124 8.09398 6.33438C8.16251 6.92958 8.14647 7.45878 8.13966 8.05716C7.43722 7.78202 6.40404 7.64886 6.00116 7.44199C5.83277 7.24661 5.75786 6.98591 5.76626 6.73143C5.81363 5.29261 5.79288 4.07191 7.51944 4.01117Z" fill="#0171F9"/>
<path d="M58.0543 6.96309C58.3262 6.951 58.5983 6.9437 58.8705 6.9411C63.173 6.92229 62.7363 11.6236 62.7391 14.5919L62.7377 18.8514C61.4488 18.882 60.1594 18.8831 58.8704 18.8547C58.8708 16.5659 58.9325 14.1628 58.8379 11.8809C58.8044 11.0691 58.5673 10.448 57.931 9.93134C56.7605 9.73437 55.9632 9.76123 55.3052 10.8494C54.6957 13.06 55.0807 15.7969 55.0093 18.0996C55.0025 18.3194 55.0416 18.632 55.0732 18.8521C53.7917 18.881 52.5099 18.8787 51.2285 18.8453C51.272 15.0757 51.3933 10.9762 51.2439 7.21447C52.3831 7.15881 53.8257 7.19844 54.9747 7.20994C54.9975 7.74602 54.9988 8.31888 55.01 8.85849C56.0707 7.53176 56.3927 7.29054 58.0543 6.96309Z" fill="#0171F9"/>
<path d="M86.1389 6.96141C87.3987 6.90255 88.6265 6.89223 89.615 7.81747C90.4851 8.62718 90.8211 9.87768 90.8303 11.0352C90.853 13.6348 90.7707 16.2511 90.8916 18.8485C89.636 18.8917 88.3796 18.8895 87.1241 18.8416C87.0006 16.373 87.3097 13.7779 87.0233 11.3134C86.8326 9.66879 85.6275 9.71329 84.3442 9.96307C84.1308 10.1781 83.9167 10.3919 83.7017 10.6045C83.1323 11.6511 83.2927 13.2166 83.2977 14.4072L83.3028 18.8555C82.5813 18.8688 80.0685 18.9721 79.5554 18.7845C79.321 18.1893 79.5545 8.6004 79.615 7.20725C80.842 7.19314 82.069 7.19381 83.296 7.20918L83.3095 8.85303C84.1426 7.61294 84.7129 7.31874 86.1389 6.96141Z" fill="#0171F9"/>
<path d="M103.566 20.0859C108.072 19.9583 113.195 20.0734 117.755 20.0683L132.936 20.1004C135.21 20.1031 137.466 20.0459 139.744 20.0728C139.772 20.8645 139.762 21.6833 139.762 22.4775L138.47 22.474L102.142 22.4783C102.12 21.7037 102.136 20.8656 102.137 20.086L103.566 20.0859Z" fill="#0171F9"/>
<path d="M138.389 3.58496C138.692 3.73147 138.544 6.68905 138.536 7.20179L141.023 7.20549C141.041 8.03485 141.09 9.06193 141.034 9.87492C140.238 9.90489 139.408 9.8572 138.553 9.89213C138.553 11.0731 138.379 15.2708 138.903 15.9952C139.522 16.4314 140.31 16.2372 141.023 16.1294C141.352 18.9764 141.093 19.1002 138.4 19.1085C135.7 19.2049 134.702 17.3133 134.76 14.9185C134.8 13.2807 134.8 11.5182 134.724 9.88634C134.355 9.89003 133.318 9.93327 133.027 9.83084C132.803 9.32741 132.836 7.88993 132.963 7.36258C133.27 7.0997 134.247 7.18945 134.701 7.19793C134.795 6.30493 134.779 5.58397 134.776 4.68677C135.562 4.31424 137.452 3.87152 138.389 3.58496Z" fill="#0171F9"/>
<path d="M3.03911 16.8395C3.52135 16.8448 5.36977 17.0143 5.65062 16.9756C8.78467 16.5439 11.2627 17.1676 11.6025 20.7792C11.6701 21.4978 11.1261 21.955 10.6235 22.4567C9.93736 22.6123 9.25247 22.5977 8.55522 22.578C6.96103 22.4771 5.045 22.6173 3.41738 22.5808C2.64556 22.5634 1.94034 22.6384 1.15983 22.5197C0.848762 22.2942 0.541202 22.064 0.237278 21.829C-0.549423 19.7859 0.912582 17.1713 3.03911 16.8395Z" fill="#0171F9"/>
<path d="M127.359 7.20459C128.578 7.19066 129.797 7.19284 131.016 7.21114C131.109 7.89894 131.055 11.0857 131.038 12.0112C130.993 14.2512 131.129 16.641 131.075 18.8333C130.008 18.9409 128.357 18.8828 127.285 18.8499C127.533 15.0507 127.261 10.9935 127.359 7.20459Z" fill="#0171F9"/>
<path d="M5.15606 8.66217C7.0547 8.31869 8.87397 9.57431 9.22545 11.471C9.57701 13.3676 8.32866 15.1916 6.43288 15.5509C4.52592 15.9125 2.68834 14.6554 2.33468 12.7475C1.98102 10.8396 3.24608 9.00775 5.15606 8.66217Z" fill="#0171F9"/>
<path d="M129.382 1.52991C129.614 1.49775 130.026 1.58919 130.272 1.63209C130.662 2.01512 130.915 2.26632 131.252 2.69435C131.287 3.12784 131.252 3.58844 131.231 4.02445C131.152 4.13805 131.068 4.24846 130.981 4.35542C130.386 5.07471 129.979 5.09838 129.102 5.18276C128.543 5.13751 128.184 5.00292 127.675 4.79604C127.482 4.56776 127.249 4.18372 127.08 3.92336L127.031 2.77966C127.741 1.62361 128.058 1.52504 129.382 1.52991Z" fill="#0171F9"/>
<path d="M151.61 20.0941C152.391 20.082 153.225 20.0992 154.009 20.103C154.034 20.8941 154.03 21.6859 154.001 22.4768C153.259 22.4572 152.373 22.4808 151.623 22.4834C151.586 21.7305 151.608 20.8562 151.61 20.0941Z" fill="#0171F9"/>
</g>
<path d="M5.88 40.15C5.16 40.15 4.48 40.01 3.84 39.73C3.2 39.45 2.64 39.065 2.16 38.575C1.68 38.075 1.3 37.5 1.02 36.85C0.75 36.19 0.615 35.485 0.615 34.735C0.615 33.985 0.75 33.285 1.02 32.635C1.3 31.985 1.68 31.415 2.16 30.925C2.65 30.425 3.22 30.04 3.87 29.77C4.53 29.49 5.24 29.35 6 29.35C6.83 29.35 7.6 29.51 8.31 29.83C9.02 30.15 9.615 30.605 10.095 31.195L8.925 32.365C8.615 31.925 8.2 31.59 7.68 31.36C7.16 31.12 6.6 31 6 31C5.28 31 4.645 31.16 4.095 31.48C3.555 31.79 3.135 32.225 2.835 32.785C2.535 33.345 2.385 33.995 2.385 34.735C2.385 35.475 2.535 36.13 2.835 36.7C3.145 37.26 3.56 37.7 4.08 38.02C4.6 38.34 5.19 38.5 5.85 38.5C6.55 38.5 7.15 38.375 7.65 38.125C8.16 37.865 8.55 37.485 8.82 36.985C9.09 36.475 9.225 35.85 9.225 35.11L10.305 35.89H5.82V34.315H11.01V34.555C11.01 35.805 10.785 36.845 10.335 37.675C9.895 38.505 9.29 39.125 8.52 39.535C7.75 39.945 6.87 40.15 5.88 40.15ZM15.4569 40.15C14.8469 40.15 14.3019 40.015 13.8219 39.745C13.3519 39.475 12.9819 39.105 12.7119 38.635C12.4519 38.155 12.3219 37.605 12.3219 36.985V32.8H13.9719V36.91C13.9719 37.26 14.0269 37.56 14.1369 37.81C14.2569 38.05 14.4269 38.235 14.6469 38.365C14.8769 38.495 15.1469 38.56 15.4569 38.56C15.9369 38.56 16.3019 38.42 16.5519 38.14C16.8119 37.85 16.9419 37.44 16.9419 36.91V32.8H18.5919V36.985C18.5919 37.615 18.4569 38.17 18.1869 38.65C17.9269 39.12 17.5619 39.49 17.0919 39.76C16.6219 40.02 16.0769 40.15 15.4569 40.15ZM23.5959 40.15C22.8759 40.15 22.2259 39.99 21.6459 39.67C21.0759 39.34 20.6209 38.89 20.2809 38.32C19.9509 37.75 19.7859 37.11 19.7859 36.4C19.7859 35.69 19.9509 35.055 20.2809 34.495C20.6109 33.925 21.0559 33.475 21.6159 33.145C22.1859 32.815 22.8159 32.65 23.5059 32.65C24.1759 32.65 24.7659 32.805 25.2759 33.115C25.7959 33.425 26.2009 33.85 26.4909 34.39C26.7909 34.93 26.9409 35.545 26.9409 36.235C26.9409 36.355 26.9309 36.48 26.9109 36.61C26.9009 36.73 26.8809 36.865 26.8509 37.015H20.9409V35.665H25.9959L25.3809 36.205C25.3609 35.765 25.2759 35.395 25.1259 35.095C24.9759 34.795 24.7609 34.565 24.4809 34.405C24.2109 34.245 23.8759 34.165 23.4759 34.165C23.0559 34.165 22.6909 34.255 22.3809 34.435C22.0709 34.615 21.8309 34.87 21.6609 35.2C21.4909 35.52 21.4059 35.905 21.4059 36.355C21.4059 36.805 21.4959 37.2 21.6759 37.54C21.8559 37.88 22.1109 38.145 22.4409 38.335C22.7709 38.515 23.1509 38.605 23.5809 38.605C23.9509 38.605 24.2909 38.54 24.6009 38.41C24.9209 38.28 25.1909 38.09 25.4109 37.84L26.4609 38.905C26.1109 39.315 25.6859 39.625 25.1859 39.835C24.6859 40.045 24.1559 40.15 23.5959 40.15ZM30.6186 40.15C30.2186 40.15 29.8336 40.1 29.4636 40C29.0936 39.89 28.7536 39.74 28.4436 39.55C28.1336 39.35 27.8636 39.11 27.6336 38.83L28.6836 37.78C28.9336 38.07 29.2186 38.29 29.5386 38.44C29.8686 38.58 30.2386 38.65 30.6486 38.65C31.0186 38.65 31.2986 38.595 31.4886 38.485C31.6786 38.375 31.7736 38.215 31.7736 38.005C31.7736 37.785 31.6836 37.615 31.5036 37.495C31.3236 37.375 31.0886 37.275 30.7986 37.195C30.5186 37.105 30.2186 37.015 29.8986 36.925C29.5886 36.835 29.2886 36.715 28.9986 36.565C28.7186 36.405 28.4886 36.19 28.3086 35.92C28.1286 35.65 28.0386 35.3 28.0386 34.87C28.0386 34.41 28.1436 34.015 28.3536 33.685C28.5736 33.355 28.8786 33.1 29.2686 32.92C29.6686 32.74 30.1436 32.65 30.6936 32.65C31.2736 32.65 31.7836 32.755 32.2236 32.965C32.6736 33.165 33.0486 33.47 33.3486 33.88L32.2986 34.93C32.0886 34.67 31.8486 34.475 31.5786 34.345C31.3086 34.215 30.9986 34.15 30.6486 34.15C30.3186 34.15 30.0636 34.2 29.8836 34.3C29.7036 34.4 29.6136 34.545 29.6136 34.735C29.6136 34.935 29.7036 35.09 29.8836 35.2C30.0636 35.31 30.2936 35.405 30.5736 35.485C30.8636 35.565 31.1636 35.655 31.4736 35.755C31.7936 35.845 32.0936 35.975 32.3736 36.145C32.6636 36.305 32.8986 36.525 33.0786 36.805C33.2586 37.075 33.3486 37.43 33.3486 37.87C33.3486 38.57 33.1036 39.125 32.6136 39.535C32.1236 39.945 31.4586 40.15 30.6186 40.15ZM35.8039 40V29.8H37.4539V40H35.8039ZM34.0789 34.3V32.8H39.1789V34.3H34.0789ZM40.1289 36.955V35.395H45.2139V36.955H40.1289ZM48.8386 40V29.8H50.5636V40H48.8386ZM45.4186 31.075V29.5H53.9836V31.075H45.4186ZM56.7454 40.15C56.0254 40.15 55.3754 39.99 54.7954 39.67C54.2254 39.34 53.7704 38.89 53.4304 38.32C53.1004 37.75 52.9354 37.11 52.9354 36.4C52.9354 35.69 53.1004 35.055 53.4304 34.495C53.7604 33.925 54.2054 33.475 54.7654 33.145C55.3354 32.815 55.9654 32.65 56.6554 32.65C57.3254 32.65 57.9154 32.805 58.4254 33.115C58.9454 33.425 59.3504 33.85 59.6404 34.39C59.9404 34.93 60.0904 35.545 60.0904 36.235C60.0904 36.355 60.0804 36.48 60.0604 36.61C60.0504 36.73 60.0304 36.865 60.0004 37.015H54.0904V35.665H59.1454L58.5304 36.205C58.5104 35.765 58.4254 35.395 58.2754 35.095C58.1254 34.795 57.9104 34.565 57.6304 34.405C57.3604 34.245 57.0254 34.165 56.6254 34.165C56.2054 34.165 55.8404 34.255 55.5304 34.435C55.2204 34.615 54.9804 34.87 54.8104 35.2C54.6404 35.52 54.5554 35.905 54.5554 36.355C54.5554 36.805 54.6454 37.2 54.8254 37.54C55.0054 37.88 55.2604 38.145 55.5904 38.335C55.9204 38.515 56.3004 38.605 56.7304 38.605C57.1004 38.605 57.4404 38.54 57.7504 38.41C58.0704 38.28 58.3404 38.09 58.5604 37.84L59.6104 38.905C59.2604 39.315 58.8354 39.625 58.3354 39.835C57.8354 40.045 57.3054 40.15 56.7454 40.15ZM64.428 40.15C63.778 40.15 63.188 39.985 62.658 39.655C62.138 39.325 61.723 38.88 61.413 38.32C61.113 37.75 60.963 37.115 60.963 36.415C60.963 35.705 61.113 35.07 61.413 34.51C61.723 33.94 62.138 33.49 62.658 33.16C63.188 32.82 63.778 32.65 64.428 32.65C64.978 32.65 65.463 32.77 65.883 33.01C66.313 33.24 66.653 33.56 66.903 33.97C67.153 34.38 67.278 34.845 67.278 35.365V37.435C67.278 37.955 67.153 38.42 66.903 38.83C66.663 39.24 66.328 39.565 65.898 39.805C65.468 40.035 64.978 40.15 64.428 40.15ZM64.698 38.59C65.308 38.59 65.798 38.385 66.168 37.975C66.548 37.565 66.738 37.04 66.738 36.4C66.738 35.97 66.653 35.59 66.483 35.26C66.313 34.93 66.073 34.675 65.763 34.495C65.463 34.305 65.108 34.21 64.698 34.21C64.298 34.21 63.943 34.305 63.633 34.495C63.333 34.675 63.093 34.93 62.913 35.26C62.743 35.59 62.658 35.97 62.658 36.4C62.658 36.83 62.743 37.21 62.913 37.54C63.093 37.87 63.333 38.13 63.633 38.32C63.943 38.5 64.298 38.59 64.698 38.59ZM66.633 40V38.065L66.918 36.31L66.633 34.57V32.8H68.283V40H66.633ZM73.4292 40.15C72.7192 40.15 72.0742 39.985 71.4942 39.655C70.9242 39.325 70.4742 38.875 70.1442 38.305C69.8142 37.735 69.6492 37.1 69.6492 36.4C69.6492 35.69 69.8142 35.055 70.1442 34.495C70.4742 33.925 70.9242 33.475 71.4942 33.145C72.0742 32.815 72.7192 32.65 73.4292 32.65C73.9892 32.65 74.5092 32.76 74.9892 32.98C75.4792 33.19 75.8942 33.495 76.2342 33.895L75.1542 34.99C74.9442 34.74 74.6892 34.555 74.3892 34.435C74.0992 34.305 73.7792 34.24 73.4292 34.24C73.0192 34.24 72.6542 34.335 72.3342 34.525C72.0242 34.705 71.7792 34.955 71.5992 35.275C71.4292 35.595 71.3442 35.97 71.3442 36.4C71.3442 36.82 71.4292 37.195 71.5992 37.525C71.7792 37.845 72.0242 38.1 72.3342 38.29C72.6542 38.47 73.0192 38.56 73.4292 38.56C73.7792 38.56 74.0992 38.5 74.3892 38.38C74.6892 38.25 74.9442 38.06 75.1542 37.81L76.2342 38.905C75.8942 39.305 75.4792 39.615 74.9892 39.835C74.5092 40.045 73.9892 40.15 73.4292 40.15ZM82.3588 40V35.845C82.3588 35.365 82.2038 34.97 81.8938 34.66C81.5938 34.35 81.2038 34.195 80.7238 34.195C80.4038 34.195 80.1188 34.265 79.8688 34.405C79.6188 34.545 79.4238 34.74 79.2838 34.99C79.1438 35.24 79.0738 35.525 79.0738 35.845L78.4288 35.485C78.4288 34.935 78.5488 34.45 78.7888 34.03C79.0288 33.6 79.3588 33.265 79.7788 33.025C80.2088 32.775 80.6888 32.65 81.2188 32.65C81.7588 32.65 82.2388 32.77 82.6588 33.01C83.0788 33.25 83.4088 33.585 83.6488 34.015C83.8888 34.435 84.0088 34.925 84.0088 35.485V40H82.3588ZM77.4238 40V29.2H79.0738V40H77.4238ZM89.0305 40.15C88.3105 40.15 87.6605 39.99 87.0805 39.67C86.5105 39.34 86.0555 38.89 85.7155 38.32C85.3855 37.75 85.2205 37.11 85.2205 36.4C85.2205 35.69 85.3855 35.055 85.7155 34.495C86.0455 33.925 86.4905 33.475 87.0505 33.145C87.6205 32.815 88.2505 32.65 88.9405 32.65C89.6105 32.65 90.2005 32.805 90.7105 33.115C91.2305 33.425 91.6355 33.85 91.9255 34.39C92.2255 34.93 92.3755 35.545 92.3755 36.235C92.3755 36.355 92.3655 36.48 92.3455 36.61C92.3355 36.73 92.3155 36.865 92.2855 37.015H86.3755V35.665H91.4305L90.8155 36.205C90.7955 35.765 90.7105 35.395 90.5605 35.095C90.4105 34.795 90.1955 34.565 89.9155 34.405C89.6455 34.245 89.3105 34.165 88.9105 34.165C88.4905 34.165 88.1255 34.255 87.8155 34.435C87.5055 34.615 87.2655 34.87 87.0955 35.2C86.9255 35.52 86.8405 35.905 86.8405 36.355C86.8405 36.805 86.9305 37.2 87.1105 37.54C87.2905 37.88 87.5455 38.145 87.8755 38.335C88.2055 38.515 88.5855 38.605 89.0155 38.605C89.3855 38.605 89.7255 38.54 90.0355 38.41C90.3555 38.28 90.6255 38.09 90.8455 37.84L91.8955 38.905C91.5455 39.315 91.1205 39.625 90.6205 39.835C90.1205 40.045 89.5905 40.15 89.0305 40.15ZM93.6982 40V32.8H95.3482V40H93.6982ZM95.3482 35.995L94.7782 35.71C94.7782 34.8 94.9782 34.065 95.3782 33.505C95.7882 32.935 96.4032 32.65 97.2232 32.65C97.5832 32.65 97.9082 32.715 98.1982 32.845C98.4882 32.975 98.7582 33.185 99.0082 33.475L97.9282 34.585C97.7982 34.445 97.6532 34.345 97.4932 34.285C97.3332 34.225 97.1482 34.195 96.9382 34.195C96.4782 34.195 96.0982 34.34 95.7982 34.63C95.4982 34.92 95.3482 35.375 95.3482 35.995ZM104.483 35.545V34.12H107.138C107.668 34.12 108.078 33.985 108.368 33.715C108.668 33.435 108.818 33.05 108.818 32.56C108.818 32.12 108.673 31.75 108.383 31.45C108.093 31.15 107.683 31 107.153 31H104.483V29.5H107.228C107.888 29.5 108.468 29.635 108.968 29.905C109.468 30.165 109.853 30.525 110.123 30.985C110.403 31.435 110.543 31.95 110.543 32.53C110.543 33.14 110.403 33.67 110.123 34.12C109.853 34.57 109.468 34.92 108.968 35.17C108.468 35.42 107.888 35.545 107.228 35.545H104.483ZM103.298 40V29.5H105.023V40H103.298ZM109.058 40L105.383 35.44L106.988 34.855L111.233 40H109.058ZM115.412 40.15C114.692 40.15 114.042 39.99 113.462 39.67C112.892 39.34 112.437 38.89 112.097 38.32C111.767 37.75 111.602 37.11 111.602 36.4C111.602 35.69 111.767 35.055 112.097 34.495C112.427 33.925 112.872 33.475 113.432 33.145C114.002 32.815 114.632 32.65 115.322 32.65C115.992 32.65 116.582 32.805 117.092 33.115C117.612 33.425 118.017 33.85 118.307 34.39C118.607 34.93 118.757 35.545 118.757 36.235C118.757 36.355 118.747 36.48 118.727 36.61C118.717 36.73 118.697 36.865 118.667 37.015H112.757V35.665H117.812L117.197 36.205C117.177 35.765 117.092 35.395 116.942 35.095C116.792 34.795 116.577 34.565 116.297 34.405C116.027 34.245 115.692 34.165 115.292 34.165C114.872 34.165 114.507 34.255 114.197 34.435C113.887 34.615 113.647 34.87 113.477 35.2C113.307 35.52 113.222 35.905 113.222 36.355C113.222 36.805 113.312 37.2 113.492 37.54C113.672 37.88 113.927 38.145 114.257 38.335C114.587 38.515 114.967 38.605 115.397 38.605C115.767 38.605 116.107 38.54 116.417 38.41C116.737 38.28 117.007 38.09 117.227 37.84L118.277 38.905C117.927 39.315 117.502 39.625 117.002 39.835C116.502 40.045 115.972 40.15 115.412 40.15ZM123.935 40.15C123.385 40.15 122.895 40.035 122.465 39.805C122.035 39.565 121.695 39.24 121.445 38.83C121.205 38.42 121.085 37.955 121.085 37.435V35.365C121.085 34.845 121.21 34.38 121.46 33.97C121.71 33.56 122.05 33.24 122.48 33.01C122.91 32.77 123.395 32.65 123.935 32.65C124.585 32.65 125.17 32.82 125.69 33.16C126.22 33.49 126.635 33.94 126.935 34.51C127.245 35.07 127.4 35.705 127.4 36.415C127.4 37.115 127.245 37.75 126.935 38.32C126.635 38.88 126.22 39.325 125.69 39.655C125.17 39.985 124.585 40.15 123.935 40.15ZM120.08 43V32.8H121.73V34.735L121.445 36.49L121.73 38.23V43H120.08ZM123.665 38.59C124.065 38.59 124.415 38.5 124.715 38.32C125.025 38.13 125.265 37.87 125.435 37.54C125.615 37.21 125.705 36.83 125.705 36.4C125.705 35.97 125.615 35.59 125.435 35.26C125.265 34.93 125.025 34.675 124.715 34.495C124.415 34.305 124.065 34.21 123.665 34.21C123.265 34.21 122.91 34.305 122.6 34.495C122.29 34.675 122.05 34.93 121.88 35.26C121.71 35.59 121.625 35.97 121.625 36.4C121.625 36.83 121.71 37.21 121.88 37.54C122.05 37.87 122.29 38.13 122.6 38.32C122.91 38.5 123.265 38.59 123.665 38.59ZM132.081 40.15C131.381 40.15 130.746 39.985 130.176 39.655C129.606 39.315 129.151 38.86 128.811 38.29C128.481 37.72 128.316 37.085 128.316 36.385C128.316 35.685 128.481 35.055 128.811 34.495C129.151 33.935 129.606 33.49 130.176 33.16C130.746 32.82 131.381 32.65 132.081 32.65C132.791 32.65 133.431 32.815 134.001 33.145C134.571 33.475 135.021 33.925 135.351 34.495C135.691 35.055 135.861 35.685 135.861 36.385C135.861 37.085 135.691 37.72 135.351 38.29C135.021 38.86 134.571 39.315 134.001 39.655C133.431 39.985 132.791 40.15 132.081 40.15ZM132.081 38.56C132.491 38.56 132.851 38.47 133.161 38.29C133.481 38.1 133.726 37.84 133.896 37.51C134.076 37.18 134.166 36.805 134.166 36.385C134.166 35.965 134.076 35.595 133.896 35.275C133.716 34.955 133.471 34.705 133.161 34.525C132.851 34.335 132.491 34.24 132.081 34.24C131.681 34.24 131.321 34.335 131.001 34.525C130.691 34.705 130.446 34.955 130.266 35.275C130.096 35.595 130.011 35.965 130.011 36.385C130.011 36.805 130.096 37.18 130.266 37.51C130.446 37.84 130.691 38.1 131.001 38.29C131.321 38.47 131.681 38.56 132.081 38.56ZM137.233 40V32.8H138.883V40H137.233ZM138.883 35.995L138.313 35.71C138.313 34.8 138.513 34.065 138.913 33.505C139.323 32.935 139.938 32.65 140.758 32.65C141.118 32.65 141.443 32.715 141.733 32.845C142.023 32.975 142.293 33.185 142.543 33.475L141.463 34.585C141.333 34.445 141.188 34.345 141.028 34.285C140.868 34.225 140.683 34.195 140.473 34.195C140.013 34.195 139.633 34.34 139.333 34.63C139.033 34.92 138.883 35.375 138.883 35.995ZM144.451 40V29.8H146.101V40H144.451ZM142.726 34.3V32.8H147.826V34.3H142.726Z" fill="#0171F9"/>
<defs>
<clipPath id="clip0_820_403">
<rect width="154" height="25" fill="white"/>
</clipPath>
</defs>
</svg>
