<svg width="55" height="60" viewBox="0 0 55 60" fill="none" xmlns="http://www.w3.org/2000/svg">
<path d="M53.7723 11.5886C47.0868 11.5886 41.6483 6.87107 41.6483 1.0725C41.648 0.787957 41.5367 0.515165 41.3389 0.314063C41.141 0.112961 40.8727 -1.41704e-07 40.5931 0H14.2345C13.9548 -1.41704e-07 13.6866 0.112961 13.4887 0.314063C13.2908 0.515165 13.1795 0.787957 13.1793 1.0725C13.1793 6.87107 7.74074 11.5886 1.05527 11.5886C0.77558 11.5886 0.507327 11.7015 0.309457 11.9026C0.111586 12.1037 0.00028291 12.3765 3.77578e-06 12.6611V21.5143C-0.00736835 37.7411 10.7812 54.015 27.8319 60C44.4824 52.6789 54.8276 37.9318 54.8276 21.5143V12.6611C54.8273 12.3765 54.716 12.1037 54.5181 11.9026C54.3203 11.7015 54.052 11.5886 53.7723 11.5886ZM52.7181 21.5143C52.7181 36.9246 43.0343 50.8071 27.4138 57.8432C11.7933 50.8071 2.10949 36.9246 2.10949 21.5143V13.6993C9.06983 13.2439 14.6526 8.31857 15.2382 2.14607H39.5894C40.1739 8.3175 45.7578 13.2439 52.7181 13.6993V21.5143Z" fill="#525252"/>
<g clip-path="url(#clip0_117_3891)">
<path d="M27.5 44C35.5081 44 42 37.5081 42 29.5C42 21.4919 35.5081 15 27.5 15C19.4919 15 13 21.4919 13 29.5C13 37.5081 19.4919 44 27.5 44Z" fill="url(#paint0_linear_117_3891)"/>
<path fillRule="evenodd" clipRule="evenodd" d="M23.1258 35.6968L18.4606 30.7701C18.1512 30.4452 17.9858 30.0132 18.001 29.569C18.0161 29.1248 18.2104 28.7046 18.5413 28.4006C18.8742 28.0986 19.3158 27.9383 19.7691 27.955C20.2225 27.9716 20.6506 28.1639 20.9595 28.4894L24.5667 32.2708L30.2797 27.0381C30.3308 26.9922 30.3846 26.9493 30.4409 26.9098L33.1211 24.4514C33.4527 24.1481 33.8936 23.9861 34.3469 24.0009C34.8002 24.0157 35.2291 24.2061 35.5394 24.5304C35.8488 24.8553 36.0142 25.2872 35.999 25.7314C35.9839 26.1757 35.7896 26.5959 35.4587 26.8999L27.2469 34.4034L24.3954 37L23.1359 35.677L23.1258 35.6968Z" fill="white"/>
</g>
<line x1="2.03516" y1="29" x2="6.24205" y2="29" stroke="#525252" stroke-width="2" stroke-linecap="round"/>
<line x1="48.5859" y1="29" x2="52.7928" y2="29" stroke="#525252" stroke-width="2" stroke-linecap="round"/>
<line x1="27.1875" y1="53.7585" x2="27.1875" y2="57.9654" stroke="#525252" stroke-width="2" stroke-linecap="round"/>
<line x1="27.6387" y1="5.5332" x2="27.6387" y2="1.32631" stroke="#525252" stroke-width="2" stroke-linecap="round"/>
<defs>
<linearGradient id="paint0_linear_117_3891" x1="14.7518" y1="-2.03407" x2="59.5895" y2="20.4658" gradientUnits="userSpaceOnUse">
<stop offset="0.184" stop-color="#29ABE2"/>
<stop offset="0.821" stop-color="#0171F9"/>
</linearGradient>
<clipPath id="clip0_117_3891">
<rect width="29" height="29" fill="white" transform="translate(13 15)"/>
</clipPath>
</defs>
</svg>
