<svg width="52" height="52" viewBox="0 0 52 52" fill="none" xmlns="http://www.w3.org/2000/svg">
<circle cx="26" cy="26" r="24.8696" fill="white" stroke="#121212" stroke-width="2.26087"/>
<line x1="26.1885" y1="1.13049" x2="26.1885" y2="6.78267" stroke="#121212" stroke-width="2.26087"/>
<line x1="51.0581" y1="25.9999" x2="45.4059" y2="25.9999" stroke="#121212" stroke-width="2.26087"/>
<line x1="26.1889" y1="50.8695" x2="26.1889" y2="45.2173" stroke="#121212" stroke-width="2.26087"/>
<line x1="0.188965" y1="26.0001" x2="5.84114" y2="26.0001" stroke="#121212" stroke-width="2.26087"/>
<path d="M25.6415 36.2784C24.1567 36.2784 22.8342 36.0232 21.6742 35.5128C20.5208 34.9957 19.6093 34.2865 18.9398 33.3849C18.2769 32.4768 17.9356 31.4295 17.9157 30.2429H22.2509C22.2774 30.7401 22.4398 31.1776 22.7381 31.5554C23.043 31.9266 23.4474 32.215 23.9512 32.4205C24.455 32.6259 25.0217 32.7287 25.6515 32.7287C26.3077 32.7287 26.8877 32.6127 27.3915 32.3807C27.8953 32.1487 28.2897 31.8272 28.5748 31.4162C28.8598 31.0052 29.0023 30.5312 29.0023 29.9943C29.0023 29.4508 28.8499 28.9702 28.5449 28.5526C28.2466 28.1283 27.8158 27.7969 27.2523 27.5582C26.6955 27.3196 26.0326 27.2003 25.2637 27.2003H23.3645V24.0384H25.2637C25.9133 24.0384 26.4867 23.9257 26.9839 23.7003C27.4876 23.4749 27.8787 23.1634 28.1571 22.7656C28.4356 22.3613 28.5748 21.8906 28.5748 21.3537C28.5748 20.8433 28.4521 20.3958 28.2069 20.0114C27.9682 19.6203 27.6302 19.3153 27.1927 19.0966C26.7618 18.8778 26.258 18.7685 25.6813 18.7685C25.098 18.7685 24.5643 18.8745 24.0804 19.0866C23.5965 19.2921 23.2088 19.5871 22.9171 19.9716C22.6254 20.3561 22.4696 20.8068 22.4498 21.3239H18.3233C18.3432 20.1506 18.678 19.1165 19.3276 18.2216C19.9772 17.3267 20.8522 16.6274 21.9526 16.1236C23.0596 15.6132 24.3091 15.358 25.7012 15.358C27.1065 15.358 28.3361 15.6132 29.3901 16.1236C30.4441 16.634 31.2627 17.3234 31.8461 18.1918C32.436 19.0535 32.7277 20.0213 32.7211 21.0952C32.7277 22.2353 32.3731 23.1866 31.6571 23.9489C30.9479 24.7112 30.0232 25.1951 28.883 25.4006V25.5597C30.3811 25.7519 31.5213 26.2723 32.3035 27.1207C33.0923 27.9626 33.4834 29.0166 33.4767 30.2827C33.4834 31.4427 33.1486 32.4735 32.4725 33.375C31.803 34.2765 30.8783 34.9858 29.6983 35.5028C28.5184 36.0199 27.1661 36.2784 25.6415 36.2784Z" fill="url(#paint0_linear_117_4046)"/>
<defs>
<linearGradient id="paint0_linear_117_4046" x1="21.7142" y1="4.25237" x2="38.3712" y2="8.03465" gradientUnits="userSpaceOnUse">
<stop offset="0.184" stop-color="#29ABE2"/>
<stop offset="0.821" stop-color="#0171F9"/>
</linearGradient>
</defs>
</svg>
