<svg width="52" height="52" viewBox="0 0 52 52" fill="none" xmlns="http://www.w3.org/2000/svg">
<circle cx="26" cy="26" r="24.8696" fill="white" stroke="#121212" stroke-width="2.26087"/>
<line x1="27.3194" y1="1.13049" x2="27.3194" y2="6.78267" stroke="#121212" stroke-width="2.26087"/>
<line x1="51.0581" y1="27.1304" x2="45.4059" y2="27.1304" stroke="#121212" stroke-width="2.26087"/>
<line x1="26.1889" y1="50.8695" x2="26.1889" y2="45.2173" stroke="#121212" stroke-width="2.26087"/>
<line x1="0.188965" y1="26.0001" x2="5.84114" y2="26.0001" stroke="#121212" stroke-width="2.26087"/>
<path d="M18.5247 36V32.8977L25.7733 26.1861C26.3897 25.5895 26.9068 25.0526 27.3244 24.5753C27.7486 24.098 28.0701 23.6307 28.2889 23.1733C28.5076 22.7093 28.617 22.2088 28.617 21.6719C28.617 21.0753 28.4811 20.5616 28.2093 20.1307C27.9376 19.6932 27.5664 19.3584 27.0957 19.1264C26.6251 18.8878 26.0915 18.7685 25.4949 18.7685C24.8718 18.7685 24.3282 18.8944 23.8642 19.1463C23.4002 19.3982 23.0422 19.7595 22.7903 20.2301C22.5384 20.7008 22.4125 21.2609 22.4125 21.9105H18.3258C18.3258 20.5781 18.6274 19.4214 19.2307 18.4403C19.8339 17.4593 20.679 16.7003 21.7662 16.1634C22.8533 15.6264 24.1061 15.358 25.5247 15.358C26.983 15.358 28.2524 15.6165 29.3329 16.1335C30.4201 16.6439 31.2652 17.3532 31.8684 18.2614C32.4717 19.1695 32.7733 20.2102 32.7733 21.3835C32.7733 22.1525 32.6208 22.9115 32.3159 23.6605C32.0176 24.4096 31.484 25.2415 30.715 26.1562C29.9461 27.0644 28.8623 28.1548 27.4636 29.4276L24.4906 32.3409V32.4801H33.0417V36H18.5247Z" fill="url(#paint0_linear_117_4032)"/>
<defs>
<linearGradient id="paint0_linear_117_4032" x1="21.7142" y1="4.25237" x2="38.3712" y2="8.03465" gradientUnits="userSpaceOnUse">
<stop offset="0.184" stop-color="#29ABE2"/>
<stop offset="0.821" stop-color="#0171F9"/>
</linearGradient>
</defs>
</svg>
